<svg width="16" height="16" viewBox="0 0 16 16" fill="none" xmlns="http://www.w3.org/2000/svg">
<path d="M6.39984 13.3327H9.59984C12.2665 13.3327 13.3332 12.266 13.3332 9.59935V6.39935C13.3332 3.73268 12.2665 2.66602 9.59984 2.66602H6.39984C3.73317 2.66602 2.6665 3.73268 2.6665 6.39935V9.59935C2.6665 12.266 3.73317 13.3327 6.39984 13.3327Z" stroke="#173D33" stroke-linecap="round" stroke-linejoin="round"/>
<path d="M6.99984 11.3327H8.99984C10.6665 11.3327 11.3332 10.666 11.3332 8.99935V6.99935C11.3332 5.33268 10.6665 4.66602 8.99984 4.66602H6.99984C5.33317 4.66602 4.6665 5.33268 4.6665 6.99935V8.99935C4.6665 10.666 5.33317 11.3327 6.99984 11.3327Z" stroke="#173D33" stroke-linecap="round" stroke-linejoin="round"/>
<path d="M5.33984 2.66732V1.33398" stroke="#173D33" stroke-linecap="round" stroke-linejoin="round"/>
<path d="M8 2.66732V1.33398" stroke="#173D33" stroke-linecap="round" stroke-linejoin="round"/>
<path d="M10.6665 2.66732V1.33398" stroke="#173D33" stroke-linecap="round" stroke-linejoin="round"/>
<path d="M13.3335 5.33398H14.6668" stroke="#173D33" stroke-linecap="round" stroke-linejoin="round"/>
<path d="M13.3335 8H14.6668" stroke="#173D33" stroke-linecap="round" stroke-linejoin="round"/>
<path d="M13.3335 10.666H14.6668" stroke="#173D33" stroke-linecap="round" stroke-linejoin="round"/>
<path d="M10.6665 13.334V14.6673" stroke="#173D33" stroke-linecap="round" stroke-linejoin="round"/>
<path d="M8.00684 13.334V14.6673" stroke="#173D33" stroke-linecap="round" stroke-linejoin="round"/>
<path d="M5.33984 13.334V14.6673" stroke="#173D33" stroke-linecap="round" stroke-linejoin="round"/>
<path d="M1.3335 5.33398H2.66683" stroke="#173D33" stroke-linecap="round" stroke-linejoin="round"/>
<path d="M1.3335 8H2.66683" stroke="#173D33" stroke-linecap="round" stroke-linejoin="round"/>
<path d="M1.3335 10.666H2.66683" stroke="#173D33" stroke-linecap="round" stroke-linejoin="round"/>
<path d="M8.00014 6.4668L7.37347 7.56013C7.23347 7.80013 7.34681 8.00013 7.62681 8.00013H8.37347C8.65347 8.00013 8.76681 8.20013 8.62681 8.44013L8.00014 9.53346" stroke="#173D33" stroke-linecap="round" stroke-linejoin="round"/>
</svg>
