<svg xmlns="http://www.w3.org/2000/svg" width="31" height="18" viewBox="0 0 31 18" fill="none">
	<g clip-path="url(#clip0_101_1515)">
		<path
			d="M21.3295 12.8099C21.2647 12.6565 15.939 2.24947 15.8518 2.10605C15.6678 1.67165 15.395 1.27931 15.0505 0.953531C14.7059 0.627751 14.2969 0.375526 13.849 0.212607C13.4011 0.0496887 12.924 -0.0204255 12.4474 0.00664302C11.9709 0.0337115 11.5051 0.157381 11.0791 0.36993C10.6532 0.582479 10.2762 0.879342 9.97186 1.24198C9.66748 1.60462 9.44218 2.02525 9.31003 2.47761C9.17788 2.92996 9.14173 3.40432 9.20382 3.87107C9.26591 4.33782 9.42491 4.78694 9.6709 5.19038C9.73571 5.34383 14.8331 15.3048 14.9204 15.4483C14.9854 15.6022 15.0616 15.7513 15.1486 15.8943C15.3326 16.3287 15.6054 16.721 15.9499 17.0468C16.2945 17.3725 16.7035 17.6248 17.1514 17.7877C17.5993 17.9506 18.0764 18.0207 18.553 17.9936C19.0295 17.9666 19.4953 17.8429 19.9213 17.6303C20.3472 17.4178 20.7241 17.1209 21.0285 16.7583C21.3329 16.3956 21.5582 15.975 21.6904 15.5227C21.8225 15.0703 21.8587 14.596 21.7966 14.1292C21.7345 13.6625 21.5755 13.2133 21.3295 12.8099Z"
			fill="#173D33" />
		<path
			d="M15.1793 5.76773C15.5058 5.42461 15.7571 5.0188 15.9175 4.57563C16.0779 4.13246 16.1439 3.66145 16.1115 3.19199C16.079 2.72254 15.9488 2.26472 15.7289 1.84711C15.509 1.4295 15.2042 1.06107 14.8335 0.764809C14.4628 0.468548 14.0341 0.25082 13.5743 0.125214C13.1145 -0.000390954 12.6333 -0.0311773 12.1608 0.0347771C11.6884 0.100731 11.2348 0.262011 10.8284 0.508548C10.422 0.755086 10.0714 1.08159 9.79868 1.46768C9.68415 1.58801 1.03676 12.0974 0.940665 12.2331C0.614149 12.5762 0.36286 12.982 0.202481 13.4252C0.0421021 13.8684 -0.0239231 14.3394 0.00852645 14.8088C0.040976 15.2783 0.171204 15.7361 0.391081 16.1537C0.610959 16.5713 0.915765 16.9398 1.28648 17.236C1.65719 17.5323 2.08584 17.75 2.54569 17.8756C3.00554 18.0012 3.4867 18.032 3.95915 17.966C4.4316 17.9001 4.88519 17.7388 5.29161 17.4923C5.69803 17.2457 6.04856 16.9192 6.32131 16.5331C6.43584 16.4128 15.0832 5.90344 15.1793 5.76773Z"
			fill="#97D28B" />
		<path
			d="M30.0597 5.76774C30.3862 5.42462 30.6375 5.01881 30.7979 4.57564C30.9582 4.13247 31.0243 3.66146 30.9918 3.192C30.9594 2.72255 30.8292 2.26472 30.6093 1.84711C30.3894 1.4295 30.0846 1.06107 29.7139 0.764809C29.3432 0.468548 28.9145 0.250819 28.4547 0.125214C27.9948 -0.00039146 27.5137 -0.0311774 27.0412 0.0347777C26.5688 0.100733 26.1152 0.262013 25.7088 0.508552C25.3023 0.755091 24.9518 1.0816 24.679 1.46769C24.5645 1.58802 15.9171 12.0974 15.821 12.2331C15.4945 12.5762 15.2432 12.982 15.0829 13.4252C14.9225 13.8684 14.8564 14.3394 14.8889 14.8088C14.9213 15.2783 15.0516 15.7361 15.2715 16.1537C15.4913 16.5713 15.7961 16.9398 16.1668 17.236C16.5376 17.5323 16.9662 17.75 17.4261 17.8756C17.8859 18.0012 18.3671 18.032 18.8395 17.9661C19.312 17.9001 19.7656 17.7388 20.172 17.4923C20.5784 17.2457 20.9289 16.9192 21.2017 16.5331C21.3162 16.4128 29.9636 5.90345 30.0597 5.76774Z"
			fill="#97D28B" />
	</g>
	<defs>
		<clipPath id="clip0_101_1515">
			<rect width="31" height="18" fill="white" />
		</clipPath>
	</defs>
</svg>